<svg id="Layer_1" data-name="Layer 1" xmlns="http://www.w3.org/2000/svg" xmlns:xlink="http://www.w3.org/1999/xlink" viewBox="0 0 388.8 388.8"><defs><style>.cls-1{fill:#1b1f23;}.cls-2{mask:url(#mask);}.cls-3{fill:url(#linear-gradient);}.cls-4{filter:url(#luminosity-invert);}</style><filter id="luminosity-invert" filterUnits="userSpaceOnUse" color-interpolation-filters="sRGB"><feColorMatrix values="-1 0 0 0 1 0 -1 0 0 1 0 0 -1 0 1 0 0 0 1 0"/></filter><mask id="mask" x="0" y="0" width="388.8" height="388.8" maskUnits="userSpaceOnUse"><g class="cls-4"><g transform="translate(-92.52 -254.17)"><path class="cls-1" d="M481.32,468.15a2.65,2.65,0,0,0-.75,2.07,194.43,194.43,0,0,1-62.21,126.31,194.31,194.31,0,0,1-68.45,40.87,12.74,12.74,0,0,1-6.73.58c-4.51-.92-7.53-4.1-7.58-8.7q-.21-17.46.1-34.92c.2-10.87.8-21.78-1.24-32.56-1.51-8-4.56-15.25-10.27-21.22-.3-.31-.77-.63-.59-1.11.28-.72,1-.63,1.64-.7a164.94,164.94,0,0,0,25.11-4.95,93.19,93.19,0,0,0,27.33-12.48c13.52-9.27,22.38-22,27.64-37.3,3.66-10.67,5.21-21.72,5.81-33,.57-10.51-.13-20.85-3.09-31a74.66,74.66,0,0,0-15.31-27.69,3.29,3.29,0,0,1-.71-3.6c5.27-16.09,3.83-31.93-1.83-47.61a3,3,0,0,0-3-2.18c-7.25-.49-14.08,1.33-20.74,3.82a132.12,132.12,0,0,0-28.12,14.88,5.67,5.67,0,0,1-5.12.89,179.35,179.35,0,0,0-52.44-5.78,168.08,168.08,0,0,0-38.42,5.6,7.69,7.69,0,0,1-6.88-1.17,132.43,132.43,0,0,0-27.9-14.48c-6.27-2.27-12.66-4-19.44-3.75a3.59,3.59,0,0,0-3.76,2.7c-5.64,15.78-6.94,31.69-1.58,47.81a2.55,2.55,0,0,1-.61,2.76c-12.72,14.63-18.79,31.69-18.71,51,.06,15.56,1.84,30.81,7.68,45.38,7.27,18.12,19.92,31.1,37.54,39.41,12.7,6,26.23,8.74,40,10.64.38,0,.76.08,1.13.14,1.32.22,1.45.76.53,1.72-6,6.25-9,13.93-10.51,22.32a3.45,3.45,0,0,1-2.15,3c-8,3.15-16.19,5-24.85,4a36.75,36.75,0,0,1-24.33-13c-3.67-4.21-6.16-9.28-9.78-13.52-4.44-5.19-9.38-9.78-15.87-12.34A26.43,26.43,0,0,0,148,529.71c-4,.78-4.9,3.34-2.27,6.55a18.31,18.31,0,0,0,5.66,4.71c5.06,2.61,8.7,6.7,11.9,11.21a95.84,95.84,0,0,1,10.66,19.21c5.12,12.48,15.07,18.93,27.81,21.69,10.16,2.2,20.37,1.72,30.57.22,1.38-.2,2.77-.33,4.13-.61,1.59-.32,2.23.24,2.22,1.85,0,4,0,8,0,12,0,6.77-.23,13.56.1,20.31.45,9.17-6.13,13-14.53,10.51-10.27-3.06-20-7.62-29.41-12.69a190.17,190.17,0,0,1-47.39-35.76C118.07,558.31,100.26,522.05,94.35,480c-.44-3.19-.73-6.41-1.08-9.61a2.54,2.54,0,0,0-.75-1.88V435.88c.74-.58.69-1.44.78-2.25.55-4.9,1.13-9.8,2-14.65,8.94-47.09,31.75-86.05,68.86-116.39,30.74-25.14,66.09-39.27,105.65-42.88a2.87,2.87,0,0,0,2.25-.76h30c.57.75,1.43.7,2.24.78a198.55,198.55,0,0,1,33.95,6.08A194.07,194.07,0,0,1,480.58,438.74a2.61,2.61,0,0,0,.74,2.07Z"/></g></g></mask><linearGradient id="linear-gradient" y1="194.4" x2="388.8" y2="194.4" gradientUnits="userSpaceOnUse"><stop offset="0" stop-color="#08a4fe"/><stop offset="1" stop-color="#e908ec"/></linearGradient></defs><g class="cls-2"><rect class="cls-3" width="388.8" height="388.8"/></g></svg>