<svg id="Layer_1" data-name="Layer 1" xmlns="http://www.w3.org/2000/svg" xmlns:xlink="http://www.w3.org/1999/xlink" viewBox="0 0 110.16 110.16"><defs><style>.cls-1{fill:#1b1f23;}.cls-2{mask:url(#mask);}.cls-3{fill:url(#linear-gradient);}.cls-4{filter:url(#luminosity-invert);}</style><filter id="luminosity-invert" filterUnits="userSpaceOnUse" color-interpolation-filters="sRGB"><feColorMatrix values="-1 0 0 0 1 0 -1 0 0 1 0 0 -1 0 1 0 0 0 1 0"/></filter><mask id="mask" x="0" y="0" width="110.16" height="110.16" maskUnits="userSpaceOnUse"><g class="cls-4"><g transform="translate(-21.24 -325.68)"><path class="cls-1" d="M21.24,425V336.55c.13,0,.09-.12.1-.19A12.12,12.12,0,0,1,26.29,328a11.87,11.87,0,0,1,5.65-2.24c.06,0,.18,0,.17-.1h88.42c0,.13.12.09.19.1a12.06,12.06,0,0,1,8.32,4.93,11.73,11.73,0,0,1,2.26,5.68c0,.05,0,.17.1.16V425c-.14,0-.09.12-.1.19a11.37,11.37,0,0,1-1.17,3.86,12.1,12.1,0,0,1-9.44,6.72s-.17,0-.16.1H32.11c0-.14-.12-.09-.19-.1a12.08,12.08,0,0,1-8.29-4.88,11.85,11.85,0,0,1-2.29-5.72C21.33,425.08,21.38,425,21.24,425ZM80.8,374.52v-.28c0-2.14,0-4.29,0-6.43,0-.26-.08-.32-.33-.32H65.39c-.34,0-.34,0-.34.35q0,26.17,0,52.36c0,.27.06.34.34.34H80.44c.41,0,.36,0,.36-.36V393.86c0-1,0-2.07.09-3.09a13.86,13.86,0,0,1,1.3-5,8.31,8.31,0,0,1,5-4.41,11.54,11.54,0,0,1,5-.45,7.39,7.39,0,0,1,4.69,2.25,9.45,9.45,0,0,1,2.16,4,20.77,20.77,0,0,1,.68,5.77v27.27c0,.39-.05.35.36.35h15.6c.43,0,.38.06.38-.39V387.61a38.67,38.67,0,0,0-.24-4.69,24.08,24.08,0,0,0-1.62-6.36,16.23,16.23,0,0,0-9-9.11,21.5,21.5,0,0,0-11.55-1.32A18,18,0,0,0,83,371.82,21.05,21.05,0,0,0,80.8,374.52ZM54.54,394.05q0-13.11,0-26.22c0-.27-.06-.34-.34-.34H38.46c-.27,0-.34.06-.34.34v52.38c0,.27.06.34.33.34H54.21c.27,0,.34-.06.34-.34Q54.54,407.13,54.54,394.05ZM56,350.76a9.72,9.72,0,1,0-9.71,9.79A9.75,9.75,0,0,0,56,350.76Z"/></g></g></mask><linearGradient id="linear-gradient" y1="55.08" x2="110.16" y2="55.08" gradientUnits="userSpaceOnUse"><stop offset="0" stop-color="#08a4fe"/><stop offset="1" stop-color="#e908ec"/></linearGradient></defs><g class="cls-2"><rect class="cls-3" width="110.16" height="110.16"/></g></svg>