<svg id="Layer_1" data-name="Layer 1" xmlns="http://www.w3.org/2000/svg" xmlns:xlink="http://www.w3.org/1999/xlink" viewBox="0 0 363.64 363.64"><defs><style>.cls-1{fill:#231f20;}.cls-2{mask:url(#mask);}.cls-3{fill:url(#linear-gradient);}.cls-4{filter:url(#luminosity-invert);}</style><filter id="luminosity-invert" filterUnits="userSpaceOnUse" color-interpolation-filters="sRGB"><feColorMatrix values="-1 0 0 0 1 0 -1 0 0 1 0 0 -1 0 1 0 0 0 1 0"/></filter><mask id="mask" x="0" y="0" width="363.64" height="363.64" maskUnits="userSpaceOnUse"><g class="cls-4"><g transform="translate(-135.34 -251.22)"><polygon class="cls-1" points="433.13 303.28 433.13 561.75 432.26 562.86 388.06 562.86 388.06 430.93 318.16 520.51 297.54 494.68 293.16 489.21 293.04 489.07 247.8 545.97 234.37 562.86 234.26 563 234.24 563 228.91 569.73 428.18 569.73 392.3 614.86 184.66 614.86 184.68 614.84 202.73 592.05 220.19 570.01 220.38 569.77 220.41 569.73 225.75 563 225.86 562.86 247.8 535.17 288.68 483.59 317.24 447.53 319.98 444.08 388.06 358.14 431.36 303.48 431.52 303.28 433.13 303.28"/><polygon class="cls-1" points="449.65 251.22 444.09 258.22 413.58 296.61 413.56 296.61 408.26 303.28 408.11 303.48 408.1 303.48 388.06 328.69 305.37 432.67 276.76 468.66 272.27 463.04 272.06 462.76 267.58 457.15 247.8 432.36 247.8 505.09 202.73 561.76 202.73 304.06 247.8 360.52 296.19 421.16 300.68 426.79 300.89 427.04 388.06 317.4 399.14 303.48 399.3 303.28 404.6 296.61 207.26 296.61 243.35 251.22 449.65 251.22"/></g></g></mask><linearGradient id="linear-gradient" y1="181.82" x2="363.64" y2="181.82" gradientUnits="userSpaceOnUse"><stop offset="0" stop-color="#08a4fe"/><stop offset="1" stop-color="#df08ec"/></linearGradient></defs><g class="cls-2"><rect class="cls-3" width="363.64" height="363.64"/></g></svg>